<svg width="36" height="24" viewBox="0 0 36 24" fill="none" xmlns="http://www.w3.org/2000/svg">
<path d="M35.586 10.2057L23.1518 0.580698C22.8358 0.335698 22.3633 0.266865 21.961 0.402198C21.5558 0.539865 21.291 0.857198 21.291 1.20836V6.16903C9.9642 6.32537 0.811157 13.722 0.811157 22.7917C0.811157 23.1907 1.1637 23.5174 1.64791 23.6177C1.73421 23.6352 1.82052 23.6434 1.90683 23.6434C2.30765 23.6434 2.69823 23.4602 2.89864 23.172C6.18274 18.44 12.4349 15.5 19.2167 15.5H21.291V20.4584C21.291 20.8095 21.5558 21.1269 21.961 21.2645C22.3618 21.3999 22.8373 21.331 23.1518 21.086L35.586 11.461C35.7996 11.2965 35.9195 11.0702 35.9195 10.8334C35.9195 10.5965 35.7996 10.3702 35.586 10.2057Z" fill="#727272"/>
</svg>
