<svg width="33" height="34" viewBox="0 0 33 34" fill="none" xmlns="http://www.w3.org/2000/svg">
<path fill-rule="evenodd" clip-rule="evenodd" d="M2.01019 14.023C1.33102 17.8527 1.98206 21.8159 3.84104 25.1684L3.84115 25.1683L2.36465 30.6967C2.30356 30.9254 2.30076 31.1675 2.35654 31.3977C2.41231 31.628 2.52464 31.8382 2.68187 32.0064C2.83911 32.1746 3.03553 32.2947 3.25078 32.3544C3.46603 32.4141 3.69229 32.4111 3.90609 32.3457L9.07383 30.7662L9.07379 30.7663C12.2076 32.7551 15.9122 33.4515 19.4921 32.7249C23.0719 31.9983 26.2807 29.8987 28.5158 26.8203C30.751 23.7418 31.8588 19.8964 31.6312 16.006C31.4036 12.1156 29.8563 8.44793 27.2798 5.69165C24.7033 2.93536 21.2749 1.28008 17.6383 1.03663C14.0017 0.793176 10.4072 1.97831 7.52959 4.36947C4.65201 6.76064 2.68936 10.1934 2.01019 14.023ZM18.5808 16.9979C18.5808 18.103 17.7434 18.9988 16.7104 18.9988C15.6775 18.9988 14.8401 18.103 14.8401 16.9979C14.8401 15.8929 15.6775 14.9971 16.7104 14.9971C17.7434 14.9971 18.5808 15.8929 18.5808 16.9979ZM9.22919 18.9988C10.2621 18.9988 11.0995 18.103 11.0995 16.9979C11.0995 15.8929 10.2621 14.9971 9.22919 14.9971C8.19625 14.9971 7.35889 15.8929 7.35889 16.9979C7.35889 18.103 8.19625 18.9988 9.22919 18.9988ZM26.0619 16.9979C26.0619 18.103 25.2245 18.9988 24.1916 18.9988C23.1587 18.9988 22.3213 18.103 22.3213 16.9979C22.3213 15.8929 23.1587 14.9971 24.1916 14.9971C25.2245 14.9971 26.0619 15.8929 26.0619 16.9979Z" fill="#727272"/>
</svg>
