<svg width="37" height="36" viewBox="0 0 37 36" fill="none" xmlns="http://www.w3.org/2000/svg">
<path d="M18.0718 0C8.78021 0 1.24609 8.05869 1.24609 18C1.24609 27.9413 8.77947 36 18.0718 36C27.3649 36 34.8976 27.9413 34.8976 18C34.8976 8.05869 27.3649 0 18.0718 0ZM18.0718 5.38221C21.1464 5.38221 23.6378 8.04841 23.6378 11.3361C23.6378 14.6246 21.1464 17.29 18.0718 17.29C14.9988 17.29 12.5074 14.6246 12.5074 11.3361C12.5074 8.04841 14.9988 5.38221 18.0718 5.38221ZM18.0681 31.2938C15.0017 31.2938 12.1932 30.0991 10.027 28.1216C9.49933 27.6401 9.19483 26.934 9.19483 26.1931C9.19483 22.8588 11.7173 20.1902 14.8347 20.1902H21.3105C24.4286 20.1902 26.9415 22.8588 26.9415 26.1931C26.9415 26.9348 26.6384 27.6393 26.11 28.1208C23.9445 30.0991 21.1353 31.2938 18.0681 31.2938Z" fill="#CCCCCC"/>
</svg>
