<svg width="33" height="32" viewBox="0 0 33 32" fill="none" xmlns="http://www.w3.org/2000/svg">
<path d="M27.5816 3.62231H26.6459V26.6098C26.6459 28.1369 25.4028 29.38 23.8757 29.38H14.3953H6.85645V30.2321C6.85645 31.2079 7.64843 31.9999 8.6242 31.9999H18.1012H27.5783C28.554 31.9999 29.346 31.2079 29.346 30.2321V5.39007C29.346 4.41429 28.5574 3.62231 27.5816 3.62231Z" fill="#727272"/>
<path d="M14.3953 28.3776H23.8723C24.8481 28.3776 25.64 27.5856 25.64 26.6099V3.62239V1.76775C25.64 0.79198 24.8481 0 23.8723 0H14.3953H11.244V0.584795C11.2507 0.644946 11.2541 0.708438 11.2541 0.77193V4.6249V5.61404C11.2541 6.98747 10.1379 8.10359 8.76451 8.10359H7.77537H3.9224C3.87227 8.10359 3.81881 8.10025 3.76868 8.09691H3.15381V26.6099C3.15381 27.5856 3.94579 28.3776 4.92156 28.3776H6.85974H14.3953ZM14.7528 22.3693H8.57403C8.11288 22.3693 7.73861 21.995 7.73861 21.5338C7.73861 21.0726 8.11288 20.6984 8.57403 20.6984H14.7562C15.2173 20.6984 15.5916 21.0726 15.5916 21.5338C15.5916 21.995 15.214 22.3693 14.7528 22.3693ZM20.9349 18.1053H8.57403C8.11288 18.1053 7.73861 17.731 7.73861 17.2699C7.73861 16.8087 8.11288 16.4345 8.57403 16.4345H20.9349C21.3961 16.4345 21.7704 16.8087 21.7704 17.2699C21.7704 17.731 21.3961 18.1053 20.9349 18.1053ZM8.57403 11.9064H20.9349C21.3961 11.9064 21.7704 12.2807 21.7704 12.7419C21.7704 13.203 21.3961 13.5773 20.9349 13.5773H8.57403C8.11288 13.5773 7.73861 13.203 7.73861 12.7419C7.73861 12.2807 8.11288 11.9064 8.57403 11.9064Z" fill="#727272"/>
<path d="M3.9223 7.10096H8.76441C8.76775 7.10096 8.77443 7.10096 8.77777 7.10096C9.58646 7.09428 10.2414 6.43931 10.2481 5.63062C10.2481 5.62728 10.2481 5.6206 10.2481 5.61725V0.771808C10.2481 0.324022 9.88053 0.0266113 9.49961 0.0266113C9.31582 0.0266113 9.13203 0.0934451 8.97831 0.247163L3.39431 5.83112C2.92647 6.29896 3.2573 7.10096 3.9223 7.10096Z" fill="#727272"/>
</svg>
