<svg width="33" height="32" viewBox="0 0 33 32" fill="none" xmlns="http://www.w3.org/2000/svg">
<rect x="0.75" width="32" height="32" fill="#C4C4C4" fill-opacity="0.01"/>
<path d="M25.5525 19.284C25.1652 19.6935 24.9872 20.2857 25.0755 20.8665L26.4049 28.8933C26.5171 29.5737 26.2539 30.2621 25.732 30.6553C25.2205 31.0632 24.5401 31.1121 23.9823 30.7858L17.3591 27.0171C17.1288 26.8834 16.8731 26.8116 16.6114 26.8034H16.2061C16.0656 26.8263 15.928 26.8752 15.8024 26.9503L9.17764 30.7369C8.85014 30.9164 8.47928 30.98 8.11589 30.9164C7.2306 30.7336 6.63991 29.8135 6.78496 28.8428L8.11589 20.8159C8.20412 20.2302 8.02616 19.6347 7.63885 19.2187L2.23888 13.5086C1.78726 13.0306 1.63024 12.3127 1.83661 11.665C2.037 11.0189 2.54843 10.5475 3.16604 10.4414L10.5983 9.26512C11.1636 9.20149 11.66 8.82625 11.9143 8.27155L15.1892 0.946253C15.267 0.783106 15.3672 0.63301 15.4883 0.505756L15.6229 0.391553C15.6932 0.306716 15.7739 0.236563 15.8637 0.179462L16.0267 0.114203L16.2809 0H16.9105C17.4727 0.0636273 17.9677 0.430708 18.2264 0.978882L21.5448 8.27155C21.784 8.80504 22.2491 9.17539 22.786 9.26512L30.2182 10.4414C30.8463 10.5393 31.3712 11.0124 31.5791 11.665C31.775 12.3192 31.606 13.0371 31.1454 13.5086L25.5525 19.284Z" fill="#727272"/>
</svg>
