<svg width="29" height="23" viewBox="0 0 29 23" fill="none" xmlns="http://www.w3.org/2000/svg">
<g clip-path="url(#clip0)">
<path d="M3.00404 10.0625C1.34822 10.0625 0 11.1378 0 12.4583V20.125C0 21.4456 1.34822 22.5208 3.00404 22.5208H6.60892C7.28545 22.5208 7.90786 22.3387 8.41136 22.0359V10.0625H3.00404Z" fill="#5B28FF"/>
<path d="M28.839 13.6563C28.839 13.0804 28.5531 12.5437 28.0568 12.1479C28.6179 11.6582 28.9039 11.0017 28.8258 10.3184C28.6852 9.10038 27.3093 8.14588 25.692 8.14588H18.2695C18.6372 7.25558 19.226 5.62357 19.226 4.31257C19.226 2.23394 17.0114 0.479248 15.6211 0.479248C14.3727 0.479248 13.481 1.03987 13.4426 1.06287C13.3008 1.15393 13.2179 1.29193 13.2179 1.43757V4.68726L9.75723 10.6663L9.61304 10.7248V20.9962C10.5911 21.3642 11.8288 21.5626 12.6171 21.5626H23.6468C24.9554 21.5626 26.1006 20.8591 26.3697 19.8884C26.5079 19.3891 26.4274 18.8859 26.1522 18.4489C27.0402 18.0924 27.6374 17.3631 27.6374 16.5313C27.6374 16.1921 27.5401 15.8672 27.3551 15.573C28.243 15.2165 28.839 14.4872 28.839 13.6563Z" fill="#5B28FF"/>
</g>
<defs>
<clipPath id="clip0">
<rect width="28.839" height="23" fill="white"/>
</clipPath>
</defs>
</svg>
