<svg width="20" height="22" viewBox="0 0 20 22" fill="none" xmlns="http://www.w3.org/2000/svg">
<path d="M19.839 13.6563C19.839 13.0804 19.5531 12.5437 19.0568 12.1479C19.6179 11.6582 19.9039 11.0017 19.8258 10.3184C19.6852 9.10038 18.3093 8.14588 16.692 8.14588H9.26953C9.63723 7.25558 10.226 5.62357 10.226 4.31257C10.226 2.23394 8.01143 0.479248 6.62113 0.479248C5.37266 0.479248 4.48101 1.03987 4.4426 1.06287C4.30083 1.15393 4.21791 1.29193 4.21791 1.43757V4.68726L0.757232 10.6663L0.613037 10.7248V20.9962C1.59114 21.3642 2.8288 21.5626 3.61708 21.5626H14.6468C15.9554 21.5626 17.1006 20.8591 17.3697 19.8884C17.5079 19.3891 17.4274 18.8859 17.1522 18.4489C18.0402 18.0924 18.6374 17.3631 18.6374 16.5313C18.6374 16.1921 18.5401 15.8672 18.3551 15.573C19.243 15.2165 19.839 14.4872 19.839 13.6563Z" fill="#727272"/>
</svg>
