<?xml version="1.0" standalone="no"?><!DOCTYPE svg PUBLIC "-//W3C//DTD SVG 1.1//EN" "http://www.w3.org/Graphics/SVG/1.1/DTD/svg11.dtd"><svg t="1630206268707" class="icon" viewBox="0 0 1117 1024" version="1.1" xmlns="http://www.w3.org/2000/svg" p-id="1185" width="34.90625" height="32" xmlns:xlink="http://www.w3.org/1999/xlink"><defs><style type="text/css"></style></defs><path d="M93.090909 93.090909v232.727273a46.545455 46.545455 0 0 1-93.090909 0V46.545455a46.545455 46.545455 0 0 1 46.545455-46.545455h279.272727a46.545455 46.545455 0 0 1 0 93.090909z m0 837.818182h232.727273a46.545455 46.545455 0 0 1 0 93.090909H46.545455a46.545455 46.545455 0 0 1-46.545455-46.545455v-279.272727a46.545455 46.545455 0 0 1 93.090909 0zM930.909091 93.090909h-232.727273a46.545455 46.545455 0 0 1 0-93.090909h279.272727a46.545455 46.545455 0 0 1 46.545455 46.545455v279.272727a46.545455 46.545455 0 0 1-93.090909 0z m0 837.818182v-232.727273a46.545455 46.545455 0 0 1 93.090909 0v279.272727a46.545455 46.545455 0 0 1-46.545455 46.545455h-279.272727a46.545455 46.545455 0 0 1 0-93.090909z" fill="#727272" p-id="1186"></path><path d="M93.090909 93.090909v232.727273a46.545455 46.545455 0 0 1-93.090909 0V46.545455a46.545455 46.545455 0 0 1 46.545455-46.545455h279.272727a46.545455 46.545455 0 0 1 0 93.090909z m0 837.818182h232.727273a46.545455 46.545455 0 0 1 0 93.090909H46.545455a46.545455 46.545455 0 0 1-46.545455-46.545455v-279.272727a46.545455 46.545455 0 0 1 93.090909 0zM930.909091 93.090909h-232.727273a46.545455 46.545455 0 0 1 0-93.090909h279.272727a46.545455 46.545455 0 0 1 46.545455 46.545455v279.272727a46.545455 46.545455 0 0 1-93.090909 0z m0 837.818182v-232.727273a46.545455 46.545455 0 0 1 93.090909 0v279.272727a46.545455 46.545455 0 0 1-46.545455 46.545455h-279.272727a46.545455 46.545455 0 0 1 0-93.090909z" p-id="1187" fill="#727272"></path></svg>