<svg width="32" height="29" viewBox="0 0 32 29" fill="none" xmlns="http://www.w3.org/2000/svg">
<rect x="0.333496" width="31.1481" height="29" fill="#F1F1F1"/>
<path d="M19.8645 16.9497H19.0515L18.7633 16.6564C19.7719 15.418 20.3791 13.8102 20.3791 12.0612C20.3791 8.16124 17.3842 5 13.6895 5C9.99485 5 7 8.16124 7 12.0612C7 15.9611 9.99485 19.1224 13.6895 19.1224C15.3465 19.1224 16.8696 18.4814 18.0429 17.4168L18.3208 17.721V18.5792L23.4666 24L25 22.3814L19.8645 16.9497V16.9497ZM13.6895 16.9497C11.1269 16.9497 9.05832 14.7662 9.05832 12.0612C9.05832 9.3562 11.1269 7.17267 13.6895 7.17267C16.2521 7.17267 18.3208 9.3562 18.3208 12.0612C18.3208 14.7662 16.2521 16.9497 13.6895 16.9497Z" fill="#A9A9A9"/>
</svg>
